<svg xmlns="http://www.w3.org/2000/svg" width="314" height="50" viewBox="0 0 314 50">
  <g id="Group_1550" data-name="Group 1550" transform="translate(-822 -5547)">
    <g id="grade-24px_1_" data-name="grade-24px (1)" transform="translate(822 5547)">
      <path id="Path_11" data-name="Path 11" d="M22.833,33.813l12.875,7.771L32.292,26.937l11.375-9.854L28.687,15.812,22.833,2,16.979,15.812,2,17.083l11.375,9.854L9.958,41.583Z" transform="translate(2.167 2.167)" fill="#fff706"/>
      <path id="Path_12" data-name="Path 12" d="M0,0H50V50H0Z" fill="none"/>
    </g>
    <g id="grade-24px_1_2" data-name="grade-24px (1)" transform="translate(888 5547)">
      <path id="Path_11-2" data-name="Path 11" d="M22.833,33.813l12.875,7.771L32.292,26.937l11.375-9.854L28.687,15.812,22.833,2,16.979,15.812,2,17.083l11.375,9.854L9.958,41.583Z" transform="translate(2.167 2.167)" fill="#fff706"/>
      <path id="Path_12-2" data-name="Path 12" d="M0,0H50V50H0Z" fill="none"/>
    </g>
    <g id="grade-24px_1_3" data-name="grade-24px (1)" transform="translate(954 5547)">
      <path id="Path_11-3" data-name="Path 11" d="M22.833,33.813l12.875,7.771L32.292,26.937l11.375-9.854L28.687,15.812,22.833,2,16.979,15.812,2,17.083l11.375,9.854L9.958,41.583Z" transform="translate(2.167 2.167)" fill="#fff706"/>
      <path id="Path_12-3" data-name="Path 12" d="M0,0H50V50H0Z" fill="none"/>
    </g>
    <g id="grade-24px_1_4" data-name="grade-24px (1)" transform="translate(1020 5547)">
      <path id="Path_11-4" data-name="Path 11" d="M22.833,33.813l12.875,7.771L32.292,26.937l11.375-9.854L28.687,15.812,22.833,2,16.979,15.812,2,17.083l11.375,9.854L9.958,41.583Z" transform="translate(2.167 2.167)" fill="#fff706"/>
      <path id="Path_12-4" data-name="Path 12" d="M0,0H50V50H0Z" fill="none"/>
    </g>
    <g id="grade-24px_1_5" data-name="grade-24px (1)" transform="translate(1086 5547)">
      <path id="Path_11-5" data-name="Path 11" d="M22.833,33.813l12.875,7.771L32.292,26.937l11.375-9.854L28.687,15.812,22.833,2,16.979,15.812,2,17.083l11.375,9.854L9.958,41.583Z" transform="translate(2.167 2.167)" fill="#fff706"/>
      <path id="Path_12-5" data-name="Path 12" d="M0,0H50V50H0Z" fill="none"/>
    </g>
  </g>
</svg>
